<svg id="Layer_1" data-name="Layer 1" xmlns="http://www.w3.org/2000/svg" xmlns:xlink="http://www.w3.org/1999/xlink" viewBox="0 0 640 320"><defs><style>.cls-1{fill:#1c1c25;}.cls-2{fill:url(#linear-gradient);}.cls-3{fill:url(#linear-gradient-2);}.cls-4{fill:url(#linear-gradient-3);}.cls-5{fill:url(#linear-gradient-4);}.cls-6{fill:url(#linear-gradient-5);}.cls-7{fill:url(#linear-gradient-6);}</style><linearGradient id="linear-gradient" x1="307.43" y1="59.01" x2="307.43" y2="42.73" gradientUnits="userSpaceOnUse"><stop offset="0" stop-color="#4c4291"/><stop offset="1"/></linearGradient><linearGradient id="linear-gradient-2" x1="324.46" y1="71.24" x2="324.46" y2="57.31" xlink:href="#linear-gradient"/><linearGradient id="linear-gradient-3" x1="328.6" y1="46.51" x2="328.6" y2="33.64" xlink:href="#linear-gradient"/><linearGradient id="linear-gradient-4" x1="313.32" y1="170.34" x2="313.32" y2="178.41" xlink:href="#linear-gradient"/><linearGradient id="linear-gradient-5" x1="313.31" y1="163.64" x2="313.31" y2="171.69" xlink:href="#linear-gradient"/><linearGradient id="linear-gradient-6" x1="320.21" y1="145.99" x2="320.21" y2="186.98" xlink:href="#linear-gradient"/></defs><path class="cls-1" d="M271.42,238H257.64v-5.14h13.78Z"/><path class="cls-1" d="M299.33,235.49H283.94v16.19H277.3V213.46h24.28v5.36H283.94v11.36h15.39Z"/><path class="cls-1" d="M313.47,246.38h17.35v5.3h-24V213.46h6.64Z"/><path class="cls-1" d="M357.81,242.78H343l-3.09,8.9H333l14.44-38.22h6l14.46,38.22h-6.93Zm-12.94-5.35h11.07l-5.54-15.86Z"/><path class="cls-1" d="M392.17,241.84a4.63,4.63,0,0,0-1.78-3.89A21.12,21.12,0,0,0,384,235.2a30.86,30.86,0,0,1-7.35-3.1q-5.22-3.28-5.22-8.56a9.28,9.28,0,0,1,3.77-7.61,15.26,15.26,0,0,1,9.77-3,16.57,16.57,0,0,1,7.12,1.47,11.75,11.75,0,0,1,4.91,4.18,10.84,10.84,0,0,1,1.78,6h-6.61a6,6,0,0,0-1.88-4.69,7.74,7.74,0,0,0-5.37-1.69,8.07,8.07,0,0,0-5.05,1.39,4.63,4.63,0,0,0-1.8,3.89A4.2,4.2,0,0,0,380,227a22.21,22.21,0,0,0,6.41,2.73,29.25,29.25,0,0,1,7.16,3,11.45,11.45,0,0,1,4,3.88,10.15,10.15,0,0,1,1.26,5.14,9.09,9.09,0,0,1-3.67,7.59q-3.66,2.84-9.93,2.83a18.74,18.74,0,0,1-7.63-1.54,12.79,12.79,0,0,1-5.4-4.24,10.53,10.53,0,0,1-1.93-6.3h6.64a6.19,6.19,0,0,0,2.15,5,9.43,9.43,0,0,0,6.17,1.79,8.16,8.16,0,0,0,5.21-1.41A4.53,4.53,0,0,0,392.17,241.84Z"/><path class="cls-1" d="M415.6,235.17l-4.33,4.59v11.92h-6.64V213.46h6.64v17.93l3.68-4.54,11.18-13.39h8L420,230.39l15,21.29H427.1Z"/><path class="cls-1" d="M203.57,232.41c.2-3.07.19-6.19.66-9.23a11.18,11.18,0,0,1,5.38-8.28,11.8,11.8,0,0,1,17.33,6.55,15.85,15.85,0,0,1,.83,4.39c.06,4.83,0,9.66-.14,14.49a12.35,12.35,0,0,1-2.74,7.24c-2.79,3.5-6.61,4.43-10.81,3.89-5.41-.71-8.93-4.12-9.84-9.67C203.73,238.72,203.78,235.56,203.57,232.41Zm7.47,1.31.55-.37,6.88-5.11c2.6-1.92,2.69-2.12,1.84-5.28a9.29,9.29,0,0,0-.77-1.88,3.51,3.51,0,0,0-2.37-1.78c-3.08-.78-5.61.79-6,4.13s-.24,6.71-.32,10.07C210.87,233.55,211,233.6,211,233.72Zm9.76-2.44c-3.36,2.49-6.45,4.77-9.52,7.08a1.1,1.1,0,0,0-.39.84,18.41,18.41,0,0,0,.59,3.5,4.56,4.56,0,0,0,8.82-.39C221.16,238.76,220.64,235.15,220.8,231.28Z"/><path class="cls-1" d="M235.93,225.92c0-2.06,0-3.89,0-5.73,0-.21.3-.52.52-.6q7.71-2.82,15.45-5.58a1.79,1.79,0,0,1,.48,0v37h-7V222.56Z"/><path class="cls-1" d="M177.55,280.14a6.21,6.21,0,0,1-2,4.3A7,7,0,0,1,170.8,286a6.75,6.75,0,0,1-3.63-1,6.46,6.46,0,0,1-2.42-2.78,10.07,10.07,0,0,1-.88-4.17v-1.61a10.14,10.14,0,0,1,.86-4.29,6.58,6.58,0,0,1,2.48-2.87,6.89,6.89,0,0,1,3.73-1,6.65,6.65,0,0,1,4.59,1.54,6.46,6.46,0,0,1,2,4.37h-3a4.24,4.24,0,0,0-1.08-2.68,3.62,3.62,0,0,0-2.55-.82,3.51,3.51,0,0,0-3,1.43,7.12,7.12,0,0,0-1.07,4.18v1.53a7.54,7.54,0,0,0,1,4.26,3.32,3.32,0,0,0,2.93,1.47,3.94,3.94,0,0,0,2.65-.79,4.16,4.16,0,0,0,1.12-2.64Z"/><path class="cls-1" d="M190.29,278.06h-7.08v5.3h8.27v2.39H180.22V268.53H191.4v2.41h-8.19v4.75h7.08Z"/><path class="cls-1" d="M199.84,274.75l3.62-6.22h3.45l-5.2,8.53,5.32,8.69h-3.49l-3.7-6.32-3.71,6.32h-3.48l5.34-8.69-5.22-8.53h3.45Z"/><path class="cls-1" d="M218.05,285.75h-2.87V267.58h2.87Z"/><path class="cls-1" d="M221.19,269.63a1.51,1.51,0,0,1,.42-1.1,1.86,1.86,0,0,1,2.4,0,1.6,1.6,0,0,1,0,2.18,1.89,1.89,0,0,1-2.4,0A1.49,1.49,0,0,1,221.19,269.63Zm3.05,16.12h-2.87V273h2.87Z"/><path class="cls-1" d="M231.52,280.26l-1.27,1.31v4.18h-2.88V267.58h2.88v10.48l.9-1.13,3.53-4h3.45l-4.75,5.33,5.26,7.47h-3.32Z"/><path class="cls-1" d="M245.41,286a5.94,5.94,0,0,1-4.43-1.72,6.24,6.24,0,0,1-1.7-4.58v-.36a7.74,7.74,0,0,1,.74-3.42,5.6,5.6,0,0,1,2.08-2.35,5.47,5.47,0,0,1,3-.84,5,5,0,0,1,4,1.67,7,7,0,0,1,1.42,4.72v1.16h-8.36a3.84,3.84,0,0,0,1.06,2.5,3.17,3.17,0,0,0,2.33.93,3.88,3.88,0,0,0,3.22-1.6l1.55,1.48a5.21,5.21,0,0,1-2.05,1.78A6.48,6.48,0,0,1,245.41,286Zm-.34-11a2.39,2.39,0,0,0-1.91.83,4.21,4.21,0,0,0-.93,2.3h5.47v-.21a3.46,3.46,0,0,0-.77-2.18A2.4,2.4,0,0,0,245.07,275Z"/><path class="cls-1" d="M268.72,281.74h-6.67l-1.4,4h-3.11l6.51-17.22h2.68l6.52,17.22h-3.13Zm-5.83-2.42h5l-2.5-7.14Z"/><path class="cls-1" d="M278.19,279.36v6.39h-3V268.53h6.58a6.68,6.68,0,0,1,4.59,1.5,5.06,5.06,0,0,1,1.69,4A4.87,4.87,0,0,1,286.4,278a7,7,0,0,1-4.65,1.41Zm0-2.41h3.59a3.55,3.55,0,0,0,2.44-.75,2.77,2.77,0,0,0,.84-2.17,3,3,0,0,0-.85-2.23,3.29,3.29,0,0,0-2.34-.86h-3.68Z"/><path class="cls-1" d="M293.84,285.75h-3V268.53h3Z"/><path class="cls-1" d="M304.28,285.75V275.08h-1.95V273h1.95v-1.17a4.39,4.39,0,0,1,1.18-3.29,4.54,4.54,0,0,1,3.31-1.16,6.72,6.72,0,0,1,1.61.21l-.07,2.25a6,6,0,0,0-1.1-.09,1.84,1.84,0,0,0-2.06,2.11V273h2.6v2.13h-2.6v10.67Z"/><path class="cls-1" d="M311.31,279.23a7.54,7.54,0,0,1,.75-3.39,5.48,5.48,0,0,1,2.09-2.32,5.9,5.9,0,0,1,3.1-.81,5.61,5.61,0,0,1,4.21,1.67,6.6,6.6,0,0,1,1.74,4.42v.68a7.53,7.53,0,0,1-.73,3.38,5.42,5.42,0,0,1-2.08,2.31,6,6,0,0,1-3.13.81,5.55,5.55,0,0,1-4.33-1.8,6.94,6.94,0,0,1-1.63-4.81Zm2.88.25a5.18,5.18,0,0,0,.81,3.09,2.67,2.67,0,0,0,2.27,1.12,2.63,2.63,0,0,0,2.27-1.14,5.69,5.69,0,0,0,.81-3.32,5.16,5.16,0,0,0-.83-3.08,2.69,2.69,0,0,0-2.27-1.13,2.61,2.61,0,0,0-2.23,1.12A5.52,5.52,0,0,0,314.19,279.48Z"/><path class="cls-1" d="M332.34,275.58a6.45,6.45,0,0,0-1.17-.1,2.63,2.63,0,0,0-2.66,1.51v8.76h-2.87V273h2.74l.07,1.43a3.25,3.25,0,0,1,2.89-1.67,2.66,2.66,0,0,1,1,.17Z"/><path class="cls-1" d="M351.23,278.5a9.45,9.45,0,0,1-1.39,5.6,5.71,5.71,0,0,1-8.43,0A8.89,8.89,0,0,1,340,278.7v-3a9.2,9.2,0,0,1,1.39-5.57,5.78,5.78,0,0,1,8.45,0,9,9,0,0,1,1.43,5.42Zm-2.88-3.22a7.27,7.27,0,0,0-.66-3.55,2.53,2.53,0,0,0-4.17-.06,6.57,6.57,0,0,0-.7,3.34v3.9a7.42,7.42,0,0,0,.67,3.59,2.27,2.27,0,0,0,2.12,1.19,2.25,2.25,0,0,0,2.05-1.1,7,7,0,0,0,.69-3.42Z"/><path class="cls-1" d="M361.55,285.75h-2.86V271.91l-4.22,1.44v-2.41l6.71-2.47h.37Z"/><path class="cls-1" d="M384.09,278.06H377v5.3h8.27v2.39H374V268.53H385.2v2.41H377v4.75h7.07Z"/><path class="cls-1" d="M392,277.16l2.43-4.21h3.2l-3.92,6.3,4.05,6.5h-3.17l-2.56-4.38-2.54,4.38h-3.19l4-6.5-3.9-6.3h3.17Z"/><path class="cls-1" d="M404.64,283.69a2.59,2.59,0,0,0,1.79-.63,2.15,2.15,0,0,0,.76-1.55h2.71a4.25,4.25,0,0,1-.75,2.23,4.87,4.87,0,0,1-1.89,1.64,5.69,5.69,0,0,1-2.58.6,5.46,5.46,0,0,1-4.26-1.74,6.89,6.89,0,0,1-1.57-4.8v-.29a6.78,6.78,0,0,1,1.56-4.68,5.41,5.41,0,0,1,4.26-1.76,5.3,5.3,0,0,1,3.72,1.33,4.77,4.77,0,0,1,1.51,3.5h-2.71a2.6,2.6,0,0,0-.75-1.81,2.44,2.44,0,0,0-1.8-.71,2.54,2.54,0,0,0-2.15,1,5.21,5.21,0,0,0-.77,3.07v.46a5.23,5.23,0,0,0,.75,3.1A2.53,2.53,0,0,0,404.64,283.69Z"/><path class="cls-1" d="M414.9,274.34a4.52,4.52,0,0,1,3.56-1.63q4.1,0,4.15,4.67v8.37h-2.87v-8.26a2.52,2.52,0,0,0-.58-1.87,2.31,2.31,0,0,0-1.68-.55,2.78,2.78,0,0,0-2.58,1.53v9.15H412V267.58h2.88Z"/><path class="cls-1" d="M433.16,285.75a4.27,4.27,0,0,1-.33-1.2,4.84,4.84,0,0,1-6.51.33,3.52,3.52,0,0,1-1.22-2.72,3.65,3.65,0,0,1,1.52-3.14,7.4,7.4,0,0,1,4.35-1.09h1.76v-.84a2.25,2.25,0,0,0-.55-1.59,2.2,2.2,0,0,0-1.69-.6,2.49,2.49,0,0,0-1.61.49,1.52,1.52,0,0,0-.63,1.25h-2.87a3.22,3.22,0,0,1,.69-2,4.73,4.73,0,0,1,1.9-1.44,6.81,6.81,0,0,1,2.68-.52,5.37,5.37,0,0,1,3.58,1.13,4.07,4.07,0,0,1,1.38,3.18v5.77a6.56,6.56,0,0,0,.48,2.75v.21ZM430,283.68a3.21,3.21,0,0,0,1.6-.42,2.69,2.69,0,0,0,1.13-1.11v-2.41h-1.55a4.26,4.26,0,0,0-2.4.55,1.82,1.82,0,0,0-.8,1.58,1.64,1.64,0,0,0,.55,1.31A2.11,2.11,0,0,0,430,283.68Z"/><path class="cls-1" d="M441.28,273l.09,1.48a4.56,4.56,0,0,1,3.72-1.72q4,0,4.07,4.58v8.46h-2.87v-8.29a2.64,2.64,0,0,0-.53-1.81,2.22,2.22,0,0,0-1.72-.58,2.77,2.77,0,0,0-2.59,1.57v9.11h-2.88V273Z"/><path class="cls-1" d="M451.58,279.25a7.53,7.53,0,0,1,1.4-4.76,4.53,4.53,0,0,1,3.72-1.78,4.23,4.23,0,0,1,3.45,1.53l.13-1.29h2.59v12.4a5.19,5.19,0,0,1-1.57,4,6,6,0,0,1-4.23,1.45,6.83,6.83,0,0,1-2.75-.58,5,5,0,0,1-2-1.53l1.36-1.73a4.09,4.09,0,0,0,3.26,1.57,3.19,3.19,0,0,0,2.26-.77,3,3,0,0,0,.83-2.28v-.86a4.24,4.24,0,0,1-3.31,1.38A4.48,4.48,0,0,1,453,284.2,7.74,7.74,0,0,1,451.58,279.25Zm2.87.25a5.15,5.15,0,0,0,.78,3,2.53,2.53,0,0,0,2.18,1.11,2.77,2.77,0,0,0,2.58-1.49v-5.63a2.71,2.71,0,0,0-2.55-1.45,2.54,2.54,0,0,0-2.21,1.12A5.8,5.8,0,0,0,454.45,279.5Z"/><path class="cls-1" d="M471.45,286a5.94,5.94,0,0,1-4.43-1.72,6.24,6.24,0,0,1-1.7-4.58v-.36a7.74,7.74,0,0,1,.74-3.42,5.67,5.67,0,0,1,2.08-2.35,5.47,5.47,0,0,1,3-.84,5,5,0,0,1,4,1.67,7,7,0,0,1,1.42,4.72v1.16h-8.36a3.84,3.84,0,0,0,1.06,2.5,3.17,3.17,0,0,0,2.34.93,3.88,3.88,0,0,0,3.21-1.6l1.55,1.48a5.14,5.14,0,0,1-2.05,1.78A6.48,6.48,0,0,1,471.45,286Zm-.34-11a2.39,2.39,0,0,0-1.91.83,4.21,4.21,0,0,0-.93,2.3h5.47v-.21a3.52,3.52,0,0,0-.76-2.18A2.42,2.42,0,0,0,471.11,275Z"/><g id="Flask"><path class="cls-1" d="M305.58,91.16c-1.39-.29-2.41-.45-3.39-.73-3.26-.9-5.48-3.57-5.33-6.34a6.83,6.83,0,0,1,6.1-6,79.58,79.58,0,0,1,8-.21c7.62,0,15.25,0,22.87,0a17.23,17.23,0,0,1,4.87.56c2.81.85,4.67,2.9,4.67,5.87s-1.74,5-4.56,6c-1.16.4-2.39.59-4.12,1,0,4.22.13,8.61,0,13a18.1,18.1,0,0,0,2.69,10.45c11.26,19,21.71,38.6,33.48,57.33,8,12.79-1.75,24.47-14.2,24.58-15.35.13-30.7,0-46,.06-8.65,0-17.31.09-26,0-7.25-.11-13.33-2.64-16.88-9.4a12,12,0,0,1,.21-12.13q18.27-31.71,36.66-63.36a5.66,5.66,0,0,0,.91-2.54C305.62,103.23,305.58,97.27,305.58,91.16Zm4.59-4.93c0,7.42,0,14.21,0,21A14,14,0,0,1,308,115c-12.15,20.55-24,41.28-35.92,62-2.31,4-1.55,7.95,1.78,11.22s7.3,3.91,11.66,3.9q34.45,0,68.92,0c1.13,0,2.27,0,3.4-.09,7.67-.52,15.1-7.77,9.44-17-11-18-21-36.61-32-54.64-3.85-6.34-5.91-12.54-5.25-19.9.41-4.55.08-9.18.08-14.13,1.54,0,2.66.08,3.76,0,1.81-.16,4.33.74,4.6-2,0-.49-2.89-1.8-4.46-1.83-9.27-.18-18.54-.09-27.81-.09a6.39,6.39,0,0,0-2.45.16,10.9,10.9,0,0,0-2.23,1.78c.78.66,1.49,1.76,2.35,1.89A43.47,43.47,0,0,0,310.17,86.23Z"/><path class="cls-2" d="M307.26,59a8.07,8.07,0,0,1-8-8.37,8,8,0,0,1,8.46-7.91,8.12,8.12,0,0,1,8,8.17A8.27,8.27,0,0,1,307.26,59Zm.19-12.62a4.45,4.45,0,1,0-.14,8.9,4.45,4.45,0,1,0,.14-8.9Z"/><path class="cls-3" d="M324.31,71.24a6.91,6.91,0,0,1-6.88-7.16,6.81,6.81,0,0,1,7.24-6.76,6.94,6.94,0,0,1,6.82,7A7.07,7.07,0,0,1,324.31,71.24Zm.16-10.8a3.81,3.81,0,1,0-.11,7.62,3.81,3.81,0,0,0,.11-7.62Z"/><path class="cls-4" d="M328.46,46.51a6.39,6.39,0,0,1-6.36-6.62,6.31,6.31,0,0,1,6.69-6.25,6.43,6.43,0,0,1,6.31,6.46A6.54,6.54,0,0,1,328.46,46.51Zm.15-10a3.52,3.52,0,1,0-.1,7,3.52,3.52,0,1,0,.1-7Z"/><path class="cls-5" d="M316,170.34c-1.84,1.37-3.55,2.63-5.24,3.9a.6.6,0,0,0-.21.46,10.24,10.24,0,0,0,.33,1.93,2.5,2.5,0,0,0,4.85-.22C316.24,174.46,316,172.47,316,170.34Z"/><path class="cls-6" d="M311,171.48l3.78-2.81c1.44-1.06,1.48-1.17,1-2.91a5.47,5.47,0,0,0-.43-1,1.94,1.94,0,0,0-1.3-1,2.47,2.47,0,0,0-3.29,2.27c-.19,1.83-.13,3.69-.18,5.54,0,0,0,.06.09.13Z"/><path class="cls-7" d="M363,178c-4.13-7.12-8.48-14.12-12.27-21.42-1.92-3.69-4.48-4.79-8.2-4.19-1.51.25-3,.87-4.46,1.14-4,.73-8.05,1.83-12.1,1.95-9.6.29-18-3.76-26.1-8.36-3.13-1.77-3.84-1.53-5.63,1.56q-8.4,14.57-16.79,29.15c-2.5,4.33-1.31,7.38,3.58,8.73a17.5,17.5,0,0,0,4.58.42q17.29,0,34.59,0c11.43,0,22.86,0,34.28,0a17.47,17.47,0,0,0,5.46-.7C364.39,184.74,365.32,182,363,178Zm-43.21-2.65a6.82,6.82,0,0,1-1.5,4,6.09,6.09,0,0,1-5.95,2.14,6,6,0,0,1-5.42-5.32,51.75,51.75,0,0,1-.37-5.17c.11-1.69.1-3.4.36-5.08a6.17,6.17,0,0,1,3-4.56,6.51,6.51,0,0,1,9.55,3.61,8.76,8.76,0,0,1,.45,2.42C319.92,170,319.91,172.67,319.8,175.32Zm13.64,5.88h-3.86V165.54l-5.21,1.85c0-1.13,0-2.14,0-3.15a.5.5,0,0,1,.28-.34l8.51-3.07a1.1,1.1,0,0,1,.26,0Z"/></g></svg>
