<svg id="Layer_1" data-name="Layer 1" xmlns="http://www.w3.org/2000/svg" xmlns:xlink="http://www.w3.org/1999/xlink" viewBox="0 0 312.72 257.14"><defs><style>.cls-1{fill:#1c1c25;}.cls-2{fill:url(#linear-gradient);}.cls-3{fill:url(#linear-gradient-2);}.cls-4{fill:url(#linear-gradient-3);}.cls-5{fill:url(#linear-gradient-4);}.cls-6{fill:url(#linear-gradient-5);}.cls-7{fill:url(#linear-gradient-6);}</style><linearGradient id="linear-gradient" x1="307.43" y1="59.02" x2="307.43" y2="42.73" gradientUnits="userSpaceOnUse"><stop offset="0" stop-color="#4c4291"/><stop offset="1"/></linearGradient><linearGradient id="linear-gradient-2" x1="324.46" y1="71.25" x2="324.46" y2="57.32" xlink:href="#linear-gradient"/><linearGradient id="linear-gradient-3" x1="328.6" y1="46.52" x2="328.6" y2="33.64" xlink:href="#linear-gradient"/><linearGradient id="linear-gradient-4" x1="313.32" y1="170.35" x2="313.32" y2="178.41" xlink:href="#linear-gradient"/><linearGradient id="linear-gradient-5" x1="313.31" y1="163.64" x2="313.31" y2="171.69" xlink:href="#linear-gradient"/><linearGradient id="linear-gradient-6" x1="320.21" y1="145.99" x2="320.21" y2="186.98" xlink:href="#linear-gradient"/></defs><path class="cls-1" d="M271.42,238H257.64v-5.15h13.78Z" transform="translate(-163.87 -33.64)"/><path class="cls-1" d="M299.32,235.49H283.94v16.19H277.3V213.47h24.28v5.35H283.94v11.37h15.38Z" transform="translate(-163.87 -33.64)"/><path class="cls-1" d="M313.47,246.38h17.35v5.3h-24V213.47h6.64Z" transform="translate(-163.87 -33.64)"/><path class="cls-1" d="M357.81,242.79H343l-3.09,8.89H333l14.44-38.21h6l14.46,38.21h-6.93Zm-12.94-5.36h11.07l-5.54-15.85Z" transform="translate(-163.87 -33.64)"/><path class="cls-1" d="M392.17,241.84a4.59,4.59,0,0,0-1.78-3.88A21.34,21.34,0,0,0,384,235.2a30.86,30.86,0,0,1-7.35-3.1c-3.48-2.18-5.22-5-5.22-8.55a9.34,9.34,0,0,1,3.77-7.62,15.26,15.26,0,0,1,9.77-3,16.57,16.57,0,0,1,7.12,1.47A11.71,11.71,0,0,1,397,218.6a10.73,10.73,0,0,1,1.78,6h-6.61a6,6,0,0,0-1.88-4.68,7.74,7.74,0,0,0-5.37-1.7,8.13,8.13,0,0,0-5.05,1.39,4.65,4.65,0,0,0-1.8,3.89A4.18,4.18,0,0,0,380,227a22.21,22.21,0,0,0,6.41,2.73,29.64,29.64,0,0,1,7.16,3,11.39,11.39,0,0,1,4,3.89,10.11,10.11,0,0,1,1.26,5.13,9.1,9.1,0,0,1-3.66,7.6q-3.67,2.82-9.94,2.82a18.61,18.61,0,0,1-7.63-1.54,12.72,12.72,0,0,1-5.4-4.24,10.53,10.53,0,0,1-1.93-6.3h6.64a6.17,6.17,0,0,0,2.15,5,9.38,9.38,0,0,0,6.17,1.79,8.22,8.22,0,0,0,5.21-1.4A4.56,4.56,0,0,0,392.17,241.84Z" transform="translate(-163.87 -33.64)"/><path class="cls-1" d="M415.61,235.17l-4.33,4.6v11.91h-6.65V213.47h6.65v17.92l3.67-4.54,11.18-13.38h8L420,230.4l15,21.28H427.1Z" transform="translate(-163.87 -33.64)"/><path class="cls-1" d="M203.57,232.41c.2-3.07.19-6.18.66-9.23a11.22,11.22,0,0,1,5.38-8.28,11.81,11.81,0,0,1,17.33,6.56,15.85,15.85,0,0,1,.83,4.39c.06,4.82,0,9.66-.14,14.48a12.38,12.38,0,0,1-2.74,7.25c-2.79,3.49-6.61,4.43-10.81,3.88-5.41-.7-8.93-4.11-9.84-9.67C203.73,238.73,203.78,235.57,203.57,232.41Zm7.47,1.31.55-.37c2.3-1.7,4.58-3.41,6.88-5.1,2.6-1.93,2.69-2.13,1.84-5.29a9,9,0,0,0-.77-1.87,3.52,3.52,0,0,0-2.37-1.79c-3.08-.77-5.61.8-6,4.13s-.24,6.71-.32,10.07C210.87,233.55,211,233.6,211,233.72Zm9.76-2.43c-3.36,2.48-6.45,4.76-9.52,7.07a1.13,1.13,0,0,0-.39.85,18.69,18.69,0,0,0,.59,3.5,4.56,4.56,0,0,0,8.82-.4C221.16,238.76,220.64,235.15,220.8,231.29Z" transform="translate(-163.87 -33.64)"/><path class="cls-1" d="M235.93,225.92c0-2.06,0-3.89,0-5.72a.9.9,0,0,1,.52-.61q7.71-2.82,15.45-5.58a1.88,1.88,0,0,1,.48,0v37h-7V222.56Z" transform="translate(-163.87 -33.64)"/><path class="cls-1" d="M177.55,280.14a6.21,6.21,0,0,1-2,4.3A7,7,0,0,1,170.8,286a6.76,6.76,0,0,1-3.63-1,6.43,6.43,0,0,1-2.42-2.77,10.08,10.08,0,0,1-.88-4.18v-1.61a10.17,10.17,0,0,1,.86-4.29,6.5,6.5,0,0,1,2.48-2.86,6.9,6.9,0,0,1,3.73-1,6.66,6.66,0,0,1,4.59,1.55,6.44,6.44,0,0,1,2,4.37h-3a4.24,4.24,0,0,0-1.08-2.68,3.57,3.57,0,0,0-2.55-.82,3.5,3.5,0,0,0-3,1.42,7.16,7.16,0,0,0-1.07,4.19v1.52a7.55,7.55,0,0,0,1,4.27,3.33,3.33,0,0,0,2.93,1.46,3.89,3.89,0,0,0,2.65-.79,4.16,4.16,0,0,0,1.12-2.64Z" transform="translate(-163.87 -33.64)"/><path class="cls-1" d="M190.29,278.06h-7.08v5.3h8.27v2.39H180.22V268.53H191.4v2.41h-8.19v4.76h7.08Z" transform="translate(-163.87 -33.64)"/><path class="cls-1" d="M199.84,274.75l3.62-6.22h3.45l-5.2,8.54,5.32,8.68h-3.49l-3.7-6.32-3.71,6.32h-3.48l5.34-8.68-5.22-8.54h3.45Z" transform="translate(-163.87 -33.64)"/><path class="cls-1" d="M218.05,285.75h-2.87V267.58h2.87Z" transform="translate(-163.87 -33.64)"/><path class="cls-1" d="M221.19,269.63a1.52,1.52,0,0,1,.42-1.1,1.86,1.86,0,0,1,2.4,0,1.49,1.49,0,0,1,.43,1.1,1.46,1.46,0,0,1-.43,1.08,1.89,1.89,0,0,1-2.4,0A1.49,1.49,0,0,1,221.19,269.63Zm3.05,16.12h-2.87V273h2.87Z" transform="translate(-163.87 -33.64)"/><path class="cls-1" d="M231.52,280.26l-1.27,1.31v4.18h-2.88V267.58h2.88v10.48l.9-1.12,3.53-4h3.45l-4.75,5.34,5.26,7.46h-3.32Z" transform="translate(-163.87 -33.64)"/><path class="cls-1" d="M245.41,286a5.94,5.94,0,0,1-4.43-1.73,6.23,6.23,0,0,1-1.7-4.58v-.35a7.75,7.75,0,0,1,.74-3.43,5.64,5.64,0,0,1,2.08-2.34,5.47,5.47,0,0,1,3-.84,5,5,0,0,1,4,1.66,7.08,7.08,0,0,1,1.42,4.72v1.16h-8.36a3.87,3.87,0,0,0,1.06,2.51,3.2,3.2,0,0,0,2.33.92,3.88,3.88,0,0,0,3.22-1.6l1.55,1.48a5.13,5.13,0,0,1-2.05,1.78A6.48,6.48,0,0,1,245.41,286Zm-.34-11a2.42,2.42,0,0,0-1.91.83,4.21,4.21,0,0,0-.93,2.31h5.47v-.22a3.46,3.46,0,0,0-.77-2.18A2.4,2.4,0,0,0,245.07,275Z" transform="translate(-163.87 -33.64)"/><path class="cls-1" d="M268.72,281.74h-6.67l-1.4,4h-3.11l6.51-17.22h2.68l6.52,17.22h-3.13Zm-5.83-2.41h5l-2.5-7.15Z" transform="translate(-163.87 -33.64)"/><path class="cls-1" d="M278.19,279.36v6.39h-3V268.53h6.58a6.68,6.68,0,0,1,4.59,1.5,5.07,5.07,0,0,1,1.69,4A4.87,4.87,0,0,1,286.4,278a7,7,0,0,1-4.65,1.41Zm0-2.41h3.59a3.55,3.55,0,0,0,2.44-.75,2.75,2.75,0,0,0,.84-2.17,3,3,0,0,0-.85-2.23,3.29,3.29,0,0,0-2.34-.86h-3.68Z" transform="translate(-163.87 -33.64)"/><path class="cls-1" d="M293.84,285.75h-3V268.53h3Z" transform="translate(-163.87 -33.64)"/><path class="cls-1" d="M304.28,285.75V275.08h-1.95V273h1.95v-1.17a4.36,4.36,0,0,1,1.18-3.28,4.5,4.5,0,0,1,3.31-1.16,6.72,6.72,0,0,1,1.61.21l-.07,2.25a5.16,5.16,0,0,0-1.1-.1,1.85,1.85,0,0,0-2.06,2.12V273h2.6v2.13h-2.6v10.67Z" transform="translate(-163.87 -33.64)"/><path class="cls-1" d="M311.31,279.23a7.54,7.54,0,0,1,.75-3.39,5.46,5.46,0,0,1,2.09-2.31,5.9,5.9,0,0,1,3.1-.81,5.6,5.6,0,0,1,4.21,1.66,6.63,6.63,0,0,1,1.74,4.43v.67a7.53,7.53,0,0,1-.73,3.38,5.31,5.31,0,0,1-2.08,2.31,6,6,0,0,1-3.13.82,5.56,5.56,0,0,1-4.33-1.81,6.91,6.91,0,0,1-1.63-4.8Zm2.88.25a5.16,5.16,0,0,0,.81,3.09,2.85,2.85,0,0,0,4.54,0,5.72,5.72,0,0,0,.81-3.33,5.13,5.13,0,0,0-.83-3.07,2.68,2.68,0,0,0-2.27-1.14,2.64,2.64,0,0,0-2.23,1.12A5.54,5.54,0,0,0,314.19,279.48Z" transform="translate(-163.87 -33.64)"/><path class="cls-1" d="M332.34,275.58a7.49,7.49,0,0,0-1.17-.1,2.64,2.64,0,0,0-2.66,1.52v8.75h-2.87V273h2.74l.07,1.43a3.24,3.24,0,0,1,2.89-1.66,2.67,2.67,0,0,1,1,.16Z" transform="translate(-163.87 -33.64)"/><path class="cls-1" d="M351.23,278.5a9.43,9.43,0,0,1-1.39,5.6,4.92,4.92,0,0,1-4.23,1.89,5,5,0,0,1-4.2-1.84A8.92,8.92,0,0,1,340,278.7v-3a9.24,9.24,0,0,1,1.39-5.57,5.78,5.78,0,0,1,8.45,0,9,9,0,0,1,1.43,5.42Zm-2.88-3.22a7.3,7.3,0,0,0-.66-3.55,2.53,2.53,0,0,0-4.17-.06,6.6,6.6,0,0,0-.7,3.34v3.9a7.49,7.49,0,0,0,.67,3.6,2.27,2.27,0,0,0,2.12,1.18,2.24,2.24,0,0,0,2.05-1.09,7,7,0,0,0,.69-3.43Z" transform="translate(-163.87 -33.64)"/><path class="cls-1" d="M361.55,285.75h-2.86V271.92l-4.22,1.44v-2.42l6.71-2.47h.37Z" transform="translate(-163.87 -33.64)"/><path class="cls-1" d="M384.09,278.06H377v5.3h8.27v2.39H374V268.53H385.2v2.41H377v4.76h7.07Z" transform="translate(-163.87 -33.64)"/><path class="cls-1" d="M392,277.16l2.43-4.21h3.2l-3.92,6.31,4.05,6.49h-3.17l-2.56-4.38-2.54,4.38h-3.19l4-6.49-3.9-6.31h3.17Z" transform="translate(-163.87 -33.64)"/><path class="cls-1" d="M404.64,283.69a2.59,2.59,0,0,0,1.79-.63,2.13,2.13,0,0,0,.76-1.54h2.71a4.25,4.25,0,0,1-.75,2.22,4.87,4.87,0,0,1-1.89,1.64,5.7,5.7,0,0,1-2.58.61,5.46,5.46,0,0,1-4.26-1.74,6.89,6.89,0,0,1-1.57-4.8v-.3a6.78,6.78,0,0,1,1.56-4.68,5.41,5.41,0,0,1,4.26-1.75,5.25,5.25,0,0,1,3.72,1.33,4.75,4.75,0,0,1,1.51,3.49h-2.71a2.64,2.64,0,0,0-.75-1.81,2.44,2.44,0,0,0-1.8-.71,2.54,2.54,0,0,0-2.15,1,5.23,5.23,0,0,0-.77,3.07v.46a5.26,5.26,0,0,0,.75,3.11A2.55,2.55,0,0,0,404.64,283.69Z" transform="translate(-163.87 -33.64)"/><path class="cls-1" d="M414.9,274.35a4.49,4.49,0,0,1,3.56-1.63c2.73,0,4.11,1.55,4.15,4.67v8.36h-2.87v-8.26a2.53,2.53,0,0,0-.58-1.87,2.31,2.31,0,0,0-1.68-.55,2.77,2.77,0,0,0-2.58,1.54v9.14H412V267.58h2.88Z" transform="translate(-163.87 -33.64)"/><path class="cls-1" d="M433.16,285.75a4.17,4.17,0,0,1-.33-1.2,4.48,4.48,0,0,1-3.36,1.44,4.53,4.53,0,0,1-3.15-1.1,3.54,3.54,0,0,1-1.22-2.72,3.62,3.62,0,0,1,1.52-3.14,7.39,7.39,0,0,1,4.35-1.1h1.76v-.84a2.25,2.25,0,0,0-.55-1.59,2.2,2.2,0,0,0-1.69-.6,2.5,2.5,0,0,0-1.61.5,1.5,1.5,0,0,0-.63,1.24h-2.87a3.24,3.24,0,0,1,.69-2,4.62,4.62,0,0,1,1.9-1.43,6.64,6.64,0,0,1,2.68-.52,5.32,5.32,0,0,1,3.58,1.13,4,4,0,0,1,1.38,3.17v5.77a6.64,6.64,0,0,0,.48,2.76v.2ZM430,283.68a3.31,3.31,0,0,0,1.6-.41,2.77,2.77,0,0,0,1.13-1.12v-2.41h-1.55a4.25,4.25,0,0,0-2.4.56,1.8,1.8,0,0,0-.8,1.57,1.68,1.68,0,0,0,.55,1.32A2.11,2.11,0,0,0,430,283.68Z" transform="translate(-163.87 -33.64)"/><path class="cls-1" d="M441.28,273l.09,1.48a4.58,4.58,0,0,1,3.72-1.71q4,0,4.07,4.57v8.46h-2.87v-8.29a2.63,2.63,0,0,0-.53-1.8,2.22,2.22,0,0,0-1.72-.59,2.77,2.77,0,0,0-2.59,1.57v9.11h-2.88V273Z" transform="translate(-163.87 -33.64)"/><path class="cls-1" d="M451.58,279.26a7.49,7.49,0,0,1,1.4-4.76,4.5,4.5,0,0,1,3.72-1.78,4.25,4.25,0,0,1,3.45,1.52l.13-1.29h2.59v12.41a5.17,5.17,0,0,1-1.57,4,6,6,0,0,1-4.23,1.46,6.84,6.84,0,0,1-2.75-.59,5,5,0,0,1-2-1.53l1.36-1.73a4.1,4.1,0,0,0,3.26,1.58,3.15,3.15,0,0,0,2.26-.78,3,3,0,0,0,.83-2.28v-.86a4.24,4.24,0,0,1-3.31,1.39A4.49,4.49,0,0,1,453,284.2,7.73,7.73,0,0,1,451.58,279.26Zm2.87.24a5.2,5.2,0,0,0,.78,3,2.52,2.52,0,0,0,2.18,1.1,2.76,2.76,0,0,0,2.58-1.49v-5.63a2.71,2.71,0,0,0-2.55-1.45,2.54,2.54,0,0,0-2.21,1.12A5.82,5.82,0,0,0,454.45,279.5Z" transform="translate(-163.87 -33.64)"/><path class="cls-1" d="M471.45,286a5.94,5.94,0,0,1-4.43-1.73,6.22,6.22,0,0,1-1.69-4.58v-.35a7.75,7.75,0,0,1,.73-3.43,5.7,5.7,0,0,1,2.08-2.34,5.47,5.47,0,0,1,3-.84,5,5,0,0,1,4,1.66,7.08,7.08,0,0,1,1.42,4.72v1.16h-8.36a3.87,3.87,0,0,0,1.06,2.51,3.2,3.2,0,0,0,2.34.92,3.87,3.87,0,0,0,3.21-1.6l1.55,1.48a5.07,5.07,0,0,1-2.05,1.78A6.42,6.42,0,0,1,471.45,286Zm-.34-11a2.42,2.42,0,0,0-1.91.83,4.21,4.21,0,0,0-.93,2.31h5.48v-.22a3.52,3.52,0,0,0-.77-2.18A2.42,2.42,0,0,0,471.11,275Z" transform="translate(-163.87 -33.64)"/><g id="Flask"><path class="cls-1" d="M305.58,91.17c-1.39-.3-2.41-.46-3.39-.73-3.26-.91-5.48-3.58-5.33-6.35a6.85,6.85,0,0,1,6.1-6c2.66-.27,5.35-.19,8-.2,7.62,0,15.25,0,22.87,0a17.6,17.6,0,0,1,4.87.56c2.81.86,4.67,2.91,4.67,5.88s-1.74,5-4.56,6c-1.16.39-2.39.58-4.12,1,0,4.21.13,8.6,0,13a18.1,18.1,0,0,0,2.69,10.45c11.26,19.06,21.71,38.61,33.48,57.33,8,12.79-1.75,24.47-14.2,24.58-15.35.14-30.7,0-46,.06-8.65,0-17.31.1-26,0-7.25-.1-13.33-2.64-16.88-9.4a12,12,0,0,1,.21-12.13q18.27-31.71,36.66-63.35a5.74,5.74,0,0,0,.91-2.54C305.62,103.23,305.58,97.27,305.58,91.17Zm4.59-4.93c0,7.42,0,14.21,0,21A14,14,0,0,1,308,115c-12.15,20.56-24,41.29-35.92,62-2.31,4-1.55,7.94,1.78,11.22s7.3,3.9,11.66,3.9q34.45-.06,68.92,0c1.13,0,2.27,0,3.4-.09,7.67-.52,15.1-7.76,9.44-17-11-18-21-36.6-32-54.64-3.85-6.33-5.91-12.54-5.25-19.89.41-4.56.08-9.18.08-14.13,1.54,0,2.66.07,3.76,0,1.81-.15,4.33.74,4.6-2,0-.49-2.89-1.79-4.46-1.82-9.27-.18-18.54-.1-27.81-.09a6.39,6.39,0,0,0-2.45.16,10.84,10.84,0,0,0-2.23,1.77c.78.66,1.49,1.77,2.35,1.9A43.47,43.47,0,0,0,310.17,86.24Z" transform="translate(-163.87 -33.64)"/><path class="cls-2" d="M307.26,59a8.08,8.08,0,0,1-8-8.38,8,8,0,0,1,8.46-7.9,8.12,8.12,0,0,1,8,8.17A8.27,8.27,0,0,1,307.26,59Zm.19-12.63a4.46,4.46,0,1,0-.14,8.91,4.46,4.46,0,0,0,.14-8.91Z" transform="translate(-163.87 -33.64)"/><path class="cls-3" d="M324.31,71.25a6.91,6.91,0,0,1-6.88-7.17,6.81,6.81,0,0,1,7.24-6.76,7,7,0,0,1,6.82,7A7.08,7.08,0,0,1,324.31,71.25Zm.16-10.81a3.81,3.81,0,1,0-.11,7.62,3.81,3.81,0,0,0,.11-7.62Z" transform="translate(-163.87 -33.64)"/><path class="cls-4" d="M328.46,46.52a6.4,6.4,0,0,1-6.36-6.63,6.3,6.3,0,0,1,6.69-6.24,6.42,6.42,0,0,1,6.31,6.45A6.55,6.55,0,0,1,328.46,46.52Zm.15-10a3.53,3.53,0,1,0-.1,7,3.53,3.53,0,0,0,.1-7Z" transform="translate(-163.87 -33.64)"/><path class="cls-5" d="M316,170.35c-1.84,1.37-3.55,2.62-5.24,3.89a.62.62,0,0,0-.21.47,10.38,10.38,0,0,0,.33,1.93,2.31,2.31,0,0,0,2.59,1.77,2.34,2.34,0,0,0,2.26-2C316.24,174.46,316,172.48,316,170.35Z" transform="translate(-163.87 -33.64)"/><path class="cls-6" d="M311,171.49l3.78-2.82c1.44-1.06,1.48-1.16,1-2.9a5.56,5.56,0,0,0-.43-1,1.94,1.94,0,0,0-1.3-1,2.47,2.47,0,0,0-3.29,2.27c-.19,1.84-.13,3.7-.18,5.55,0,0,0,.05.09.12Z" transform="translate(-163.87 -33.64)"/><path class="cls-7" d="M363,178c-4.13-7.12-8.48-14.13-12.27-21.42-1.92-3.69-4.48-4.8-8.2-4.19-1.51.24-3,.86-4.46,1.13-4,.74-8.05,1.83-12.1,1.95-9.6.29-18-3.75-26.1-8.35-3.13-1.77-3.84-1.54-5.63,1.56L277.46,177.8c-2.5,4.34-1.31,7.38,3.58,8.73a17.94,17.94,0,0,0,4.58.43c11.53,0,23.06,0,34.59,0s22.86,0,34.28,0a17.46,17.46,0,0,0,5.46-.69C364.39,184.74,365.32,182,363,178Zm-43.21-2.65a6.82,6.82,0,0,1-1.5,4,6.11,6.11,0,0,1-5.95,2.14,6,6,0,0,1-5.42-5.33,51.55,51.55,0,0,1-.37-5.16c.11-1.69.1-3.41.36-5.08a6.17,6.17,0,0,1,3-4.56,6.5,6.5,0,0,1,9.55,3.61,8.76,8.76,0,0,1,.45,2.41C319.92,170,319.91,172.67,319.8,175.33Zm13.64,5.87h-3.86V165.54l-5.21,1.85c0-1.13,0-2.14,0-3.15a.48.48,0,0,1,.28-.33l8.51-3.07a1.1,1.1,0,0,1,.26,0Z" transform="translate(-163.87 -33.64)"/></g></svg>